<?xml version="1.0" encoding="UTF-8"?>
<svg version="1.1" xmlns="http://www.w3.org/2000/svg" width="257" height="257">
<path d="M0 0 C1.17822266 1.90966797 1.17822266 1.90966797 2.1640625 4.4921875 C2.55432617 5.48468506 2.94458984 6.47718262 3.34667969 7.49975586 C3.76852539 8.61358643 4.19037109 9.72741699 4.625 10.875 C5.59878096 13.3540078 6.57549981 15.8317289 7.5546875 18.30859375 C7.82019409 18.98473221 8.08570068 19.66087067 8.35925293 20.35749817 C11.63877207 28.68459236 15.11880568 36.92750515 18.58880615 45.17657471 C20.54744101 49.83354438 22.49983608 54.49312994 24.453125 59.15234375 C24.83963226 60.07382202 25.22613953 60.99530029 25.62435913 61.94470215 C29.26404672 70.62378702 32.88394589 79.31104837 36.5 88 C41.6415267 100.35112443 46.79706573 112.69632668 51.96343994 125.03707886 C53.11290977 127.78361171 54.26138293 130.53055952 55.40966797 133.27758789 C58.92666202 141.68741264 62.45775053 150.09057897 66.03125 158.4765625 C66.94297961 160.62329178 67.85414802 162.77025821 68.76507568 164.91732788 C69.60267798 166.88506013 70.44792171 168.84938742 71.29345703 170.8137207 C71.78700684 171.97734131 72.28055664 173.14096191 72.7890625 174.33984375 C73.21912598 175.34394287 73.64918945 176.34804199 74.09228516 177.38256836 C75 180 75 180 75 184 C70.85310018 182.33922701 67.93283833 179.34019055 64.75 176.3125 C63.58274649 175.21798673 62.41478071 174.12423255 61.24609375 173.03125 C60.68519043 172.5053125 60.12428711 171.979375 59.54638672 171.4375 C57.06549177 169.1312939 54.50961693 166.91608342 51.94921875 164.69921875 C48.79306709 161.9478641 45.69030501 159.1380426 42.58984375 156.32421875 C40.85101946 154.76373541 39.09267999 153.22474986 37.31640625 151.70703125 C36.44886719 150.95808594 35.58132812 150.20914063 34.6875 149.4375 C33.90761719 148.77621094 33.12773437 148.11492187 32.32421875 147.43359375 C27.1361247 142.00135409 24.08771828 135.38371509 21.3203125 128.48046875 C20.99052399 127.67613403 20.66073547 126.87179932 20.32095337 126.04309082 C19.61527844 124.32031132 18.9127915 122.59622304 18.21325684 120.87094116 C16.35255204 116.28278543 14.46792824 111.70445591 12.5859375 107.125 C12.20449585 106.19515793 11.8230542 105.26531586 11.43005371 104.30729675 C7.04121858 93.62782503 2.48156387 83.02311352 -2.08935547 72.4206543 C-2.66897225 71.07602072 -3.24856292 69.7313759 -3.828125 68.38671875 C-4.10057037 67.75497238 -4.37301575 67.12322601 -4.65371704 66.47233582 C-7.15211277 60.66876777 -9.58786592 54.83986738 -12 49 C-14.27568333 52.413525 -15.6382099 55.94495517 -17.09765625 59.75 C-17.40402512 60.53971695 -17.71039398 61.3294339 -18.02604675 62.14308167 C-18.69184938 63.86011219 -19.35607661 65.57775422 -20.0189209 67.29592896 C-21.8026677 71.91788628 -23.5997568 76.53466018 -25.39453125 81.15234375 C-25.95507706 82.59600563 -25.95507706 82.59600563 -26.52694702 84.0688324 C-30.37157455 93.9675442 -34.24298163 103.85560041 -38.13668823 113.73510742 C-38.8742485 115.6082327 -39.61037174 117.48192451 -40.34500122 119.35620117 C-41.37752988 121.99016738 -42.41475035 124.62224015 -43.453125 127.25390625 C-43.75357224 128.02311905 -44.05401947 128.79233185 -44.36357117 129.58485413 C-49.82159026 143.36138545 -49.82159026 143.36138545 -54.828125 148.25390625 C-55.54613281 148.96353516 -56.26414063 149.67316406 -57.00390625 150.40429688 C-57.74511719 151.11650391 -58.48632812 151.82871094 -59.25 152.5625 C-59.97574219 153.27857422 -60.70148438 153.99464844 -61.44921875 154.73242188 C-65.5627589 158.76163812 -69.7996152 162.60043903 -74.15625 166.36352539 C-77.37527655 169.2206672 -80.32973945 172.32257606 -83.3046875 175.43164062 C-84.50095465 176.65679491 -85.74672311 177.83322875 -87 179 C-87.66 179 -88.32 179 -89 179 C-89 179.66 -89 180.32 -89 181 C-89.66 181 -90.32 181 -91 181 C-91 181.66 -91 182.32 -91 183 C-91.66 183 -92.32 183 -93 183 C-93.33 183.99 -93.66 184.98 -94 186 C-94.99 186 -95.98 186 -97 186 C-96.41623067 181.56832136 -95.28843758 177.9060056 -93.5078125 173.8125 C-93.25061432 173.21474762 -92.99341614 172.61699524 -92.72842407 172.00112915 C-92.16490494 170.69254462 -91.59853354 169.38518554 -91.02966309 168.07891846 C-89.428899 164.40035783 -87.8522453 160.71146231 -86.2734375 157.0234375 C-85.93187622 156.22674652 -85.59031494 155.43005554 -85.23840332 154.60922241 C-80.98013436 144.65409006 -76.87013241 134.63787261 -72.75 124.625 C-66.4611265 109.35618983 -60.13481983 94.10394828 -53.75 78.875 C-53.37904205 77.99004852 -53.00808411 77.10509705 -52.62588501 76.19332886 C-51.15448314 72.68326527 -49.68298702 69.17324122 -48.21125793 65.66331482 C-44.44328839 56.67556839 -40.68688836 47.68301271 -36.9375 38.6875 C-36.62839691 37.94590637 -36.31929382 37.20431274 -36.00082397 36.44024658 C-30.94867969 24.31463006 -25.94554765 12.16953188 -21 0 C-18.25034772 -0.19511725 -15.50057868 -0.38136433 -12.75 -0.5625 C-11.97269531 -0.61857422 -11.19539063 -0.67464844 -10.39453125 -0.73242188 C-9.64042969 -0.78076172 -8.88632813 -0.82910156 -8.109375 -0.87890625 C-7.07248535 -0.94960327 -7.07248535 -0.94960327 -6.01464844 -1.02172852 C-3.73712232 -0.99716479 -2.11124093 -0.88604068 0 0 Z " fill="#F1F2F1" transform="translate(139,26)"/>
<path d="M0 0 C5.5342617 4.61638638 10.67907868 9.51844757 15.77734375 14.609375 C16.58869278 15.41739563 17.40004181 16.22541626 18.23597717 17.05792236 C19.93735345 18.75426355 21.63740178 20.45193758 23.33618164 22.15087891 C25.94853123 24.76102192 28.56879838 27.36304263 31.18945312 29.96484375 C32.84423834 31.61669844 34.49855233 33.26902535 36.15234375 34.921875 C36.9397142 35.70205994 37.72708466 36.48224487 38.53831482 37.28607178 C39.2564888 38.00732239 39.97466278 38.728573 40.71459961 39.47167969 C41.3507872 40.10644226 41.98697479 40.74120483 42.6424408 41.39520264 C44 43 44 43 44 45 C44.66 45 45.32 45 46 45 C47.39862061 46.41862488 47.39862061 46.41862488 49.04199219 48.41088867 C53.23144354 53.33404109 57.74487011 57.87104719 62.328125 62.42578125 C63.19894714 63.29518845 64.06976929 64.16459564 64.96697998 65.06034851 C67.72562833 67.81344218 70.4877456 70.56302488 73.25 73.3125 C75.12002358 75.17750186 76.98981749 77.04273405 78.859375 78.90820312 C82.96006272 82.99910141 87.0629337 87.08779509 91.16778564 91.17451477 C91.77241638 91.7769249 92.37704712 92.37933502 93 93 C93.5754657 93.5132634 94.1509314 94.02652679 94.74383545 94.55534363 C96 96 96 96 96 99 C91.72871175 97.49906133 88.15504461 95.28208772 84.4375 92.75 C83.79329102 92.31598877 83.14908203 91.88197754 82.48535156 91.43481445 C76.17602507 87.16327822 69.94198135 82.78327472 63.70922852 78.40112305 C56.99080075 73.67984065 50.22575875 69.03039514 43.44238281 64.40307617 C39.61290928 61.78991484 35.79073275 59.16925299 32 56.5 C27.14953788 53.08925102 22.26401631 49.7301341 17.375 46.375 C16.57449219 45.82392578 15.77398437 45.27285156 14.94921875 44.70507812 C10.04094008 41.34229877 5.07435119 38.10671002 0 35 C-16.18034868 45.68449185 -32.14170121 56.70024803 -48.10986328 67.69824219 C-57.37782749 74.08119041 -66.6532907 80.45320328 -75.9375 86.8125 C-77.09052612 87.60309814 -77.09052612 87.60309814 -78.2668457 88.40966797 C-83.48410601 91.98100351 -88.73181558 95.50424513 -94 99 C-94.66 98.34 -95.32 97.68 -96 97 C-94.88200014 95.66079162 -93.75538103 94.32877444 -92.625 93 C-91.99851562 92.2575 -91.37203125 91.515 -90.7265625 90.75 C-89.87191406 89.88375 -89.87191406 89.88375 -89 89 C-88.34 89 -87.68 89 -87 89 C-87 88.34 -87 87.68 -87 87 C-85.125 84.875 -85.125 84.875 -83 83 C-82.34 83 -81.68 83 -81 83 C-80.73027626 82.40509797 -80.46055252 81.81019594 -80.18265533 81.19726658 C-79.00294845 79.00547795 -77.83440957 77.58999495 -76.07751465 75.84373474 C-75.18161873 74.94588257 -75.18161873 74.94588257 -74.2676239 74.02989197 C-73.61405411 73.38508377 -72.96048431 72.74027557 -72.28710938 72.07592773 C-71.25273491 71.04352463 -71.25273491 71.04352463 -70.19746399 69.99026489 C-67.91745317 67.71674411 -65.63055544 65.45027829 -63.34375 63.18359375 C-61.75905497 61.60516909 -60.17487398 60.0262282 -58.59118652 58.4467926 C-54.42046005 54.28937277 -50.24420573 50.13755402 -46.06634521 45.98730469 C-39.37762659 39.34169598 -32.69559994 32.6893754 -26.01679993 26.03380013 C-23.68035536 23.70759348 -21.34053496 21.38482199 -19.00036621 19.06236267 C-17.5710929 17.63991635 -16.14192844 16.21736065 -14.71289062 14.79467773 C-14.05932083 14.14784531 -13.40575104 13.50101288 -12.7323761 12.83457947 C-12.13511215 12.23883118 -11.53784821 11.64308289 -10.92248535 11.02928162 C-10.40334816 10.51366385 -9.88421097 9.99804609 -9.34934235 9.46680355 C-7.77741604 7.83412886 -7.77741604 7.83412886 -6 5 C-5.34 5 -4.68 5 -4 5 C-3.71125 4.360625 -3.4225 3.72125 -3.125 3.0625 C-2 1 -2 1 0 0 Z " fill="#EAA944" transform="translate(129,143)"/>
<path d="M0 0 C3.30773124 1.10257708 3.95480147 1.85733606 6.10449219 4.47338867 C10.26966135 9.37869774 14.76569324 13.89174074 19.328125 18.42578125 C20.19894714 19.29518845 21.06976929 20.16459564 21.96697998 21.06034851 C24.72562833 23.81344218 27.4877456 26.56302488 30.25 29.3125 C32.12002358 31.17750186 33.98981749 33.04273405 35.859375 34.90820312 C39.96006272 38.99910141 44.0629337 43.08779509 48.16778564 47.17451477 C48.77241638 47.7769249 49.37704712 48.37933502 50 49 C50.5754657 49.5132634 51.1509314 50.02652679 51.74383545 50.55534363 C53 52 53 52 53 55 C48.72871175 53.49906133 45.15504461 51.28208772 41.4375 48.75 C40.79329102 48.31598877 40.14908203 47.88197754 39.48535156 47.43481445 C33.17602507 43.16327822 26.94198135 38.78327472 20.70922852 34.40112305 C14.79401077 30.2442854 8.84722165 26.13697315 2.875 22.0625 C-2.69797068 18.26015847 -8.26439133 14.45170805 -13.77734375 10.5625 C-15.4504087 9.38635592 -17.13149363 8.22160771 -18.81640625 7.0625 C-20.20666016 6.1034375 -20.20666016 6.1034375 -21.625 5.125 C-22.46289062 4.55007812 -23.30078125 3.97515625 -24.1640625 3.3828125 C-24.76992187 2.92648438 -25.37578125 2.47015625 -26 2 C-26 1.67 -26 1.34 -26 1 C-24.35 1 -22.7 1 -21 1 C-21 1.99 -21 2.98 -21 4 C-20.2575 4.103125 -19.515 4.20625 -18.75 4.3125 C-15.8026481 5.04933797 -14.21616926 5.94799142 -12 8 C-12 8.66 -12 9.32 -12 10 C-11.34 9.34 -10.68 8.68 -10 8 C-9.21625 8.04125 -8.4325 8.0825 -7.625 8.125 C-4.87119754 8.24630646 -4.87119754 8.24630646 -2.75 6.25 C-1.04336323 4.05575272 -0.38794477 2.71561337 0 0 Z " fill="#E2A547" transform="translate(172,187)"/>
<path d="M0 0 C4.71128937 3.93293265 9.16621993 8.02767358 13.484375 12.38671875 C14.06664856 12.97040726 14.64892212 13.55409576 15.24884033 14.1554718 C17.08495191 15.99711718 18.91753566 17.84222629 20.75 19.6875 C21.99325533 20.93578023 23.23674303 22.18382907 24.48046875 23.43164062 C26.75241406 25.71171013 29.02306464 27.99305056 31.29199219 30.27612305 C32.78632717 31.77921495 34.29744768 33.26800548 35.87207031 34.68676758 C37 36 37 36 37 39 C32.72870912 37.4990604 29.15509502 35.28209248 25.4375 32.75 C24.80706787 32.32541504 24.17663574 31.90083008 23.52709961 31.46337891 C14.60560766 25.42437979 5.80488668 19.20714242 -3 13 C-2.06414062 12.81630859 -2.06414062 12.81630859 -1.109375 12.62890625 C1.67390599 11.79907618 2.4595 10.387775 4 8 C3.34 7.67 2.68 7.34 2 7 C1.26924352 4.6859378 0.59861742 2.35171131 0 0 Z " fill="#C4964A" transform="translate(188,203)"/>
<path d="M0 0 C0.75 1.6875 0.75 1.6875 1 4 C-0.9375 6.75 -0.9375 6.75 -3 9 C-1.68 9 -0.36 9 1 9 C1 7.68 1 6.36 1 5 C1.66 5 2.32 5 3 5 C3 4.34 3 3.68 3 3 C3.66 3 4.32 3 5 3 C5 3.66 5 4.32 5 5 C5.99 5.33 6.98 5.66 8 6 C5.02147259 8.04260044 2.04205785 10.08390304 -0.9375 12.125 C-1.76830078 12.69476563 -2.59910156 13.26453125 -3.45507812 13.8515625 C-8.94263248 17.60957638 -14.45676136 21.3246191 -20 25 C-20.66 24.34 -21.32 23.68 -22 23 C-20.88200014 21.66079162 -19.75538103 20.32877444 -18.625 19 C-17.68527344 17.88625 -17.68527344 17.88625 -16.7265625 16.75 C-15.87191406 15.88375 -15.87191406 15.88375 -15 15 C-14.34 15 -13.68 15 -13 15 C-13 14.34 -13 13.68 -13 13 C-11.125 10.875 -11.125 10.875 -9 9 C-8.34 9 -7.68 9 -7 9 C-6.773125 8.443125 -6.54625 7.88625 -6.3125 7.3125 C-4.64103234 4.36753316 -2.44723648 2.31843456 0 0 Z " fill="#D8A451" transform="translate(55,217)"/>
<path d="M0 0 C0.33 0.66 0.66 1.32 1 2 C-0.3125 4.625 -0.3125 4.625 -2 7 C-2.66 7 -3.32 7 -4 7 C-4 7.66 -4 8.32 -4 9 C-3.01 9 -2.02 9 -1 9 C-1 8.34 -1 7.68 -1 7 C-0.01 7 0.98 7 2 7 C2.33 7.66 2.66 8.32 3 9 C6.02934491 9.65772428 6.02934491 9.65772428 9 10 C9.33 8.68 9.66 7.36 10 6 C10.33 7.32 10.66 8.64 11 10 C9.41906946 11.12837409 7.83515284 12.25256518 6.25 13.375 C4.92742187 14.31472656 4.92742187 14.31472656 3.578125 15.2734375 C1.42585021 16.71480941 -0.65460523 17.91498093 -3 19 C-3.4640625 17.329375 -3.4640625 17.329375 -3.9375 15.625 C-4.82326483 12.2054845 -4.82326483 12.2054845 -6 10 C-8.77000825 13.32086771 -8.77000825 13.32086771 -11 17 C-11.99 17 -12.98 17 -14 17 C-14 17.66 -14 18.32 -14 19 C-15.32 18.67 -16.64 18.34 -18 18 C-12.06 12.06 -6.12 6.12 0 0 Z " fill="#E4A94C" transform="translate(75,197)"/>
<path d="M0 0 C-0.33 3.63 -0.66 7.26 -1 11 C-4.05847848 11.54372951 -6.88772805 12 -10 12 C-10 11.01 -10 10.02 -10 9 C-10.99 9 -11.98 9 -13 9 C-13 9.66 -13 10.32 -13 11 C-13.99 11 -14.98 11 -16 11 C-16 10.34 -16 9.68 -16 9 C-15.01 8.34 -14.02 7.68 -13 7 C-12.71125 6.195625 -12.4225 5.39125 -12.125 4.5625 C-9.6238002 -1.13467733 -5.56353708 -1.42323042 0 0 Z " fill="#F0AD43" transform="translate(87,195)"/>
<path d="M0 0 C5.66262188 4.69877135 10.84414788 9.75422022 16 15 C16.87398437 15.78310547 16.87398437 15.78310547 17.765625 16.58203125 C19 18 19 18 19 21 C14.25071304 19.38008817 10.37681308 16.7830146 6.25 14 C5.56550781 13.54882812 4.88101563 13.09765625 4.17578125 12.6328125 C-0.87327939 9.25344122 -0.87327939 9.25344122 -2 7 C-0.68 7 0.64 7 2 7 C1.34 4.69 0.68 2.38 0 0 Z " fill="#C49954" transform="translate(206,221)"/>
<path d="M0 0 C4.52615993 3.67832017 8.39424999 7.41086363 12 12 C11.01 12.495 11.01 12.495 10 13 C10 12.34 10 11.68 10 11 C9.01 11 8.02 11 7 11 C7.185625 11.639375 7.37125 12.27875 7.5625 12.9375 C7.706875 13.618125 7.85125 14.29875 8 15 C7 16 7 16 4.1875 16.3125 C1 16 1 16 -1.375 14 C-1.91125 13.34 -2.4475 12.68 -3 12 C-1.35 12 0.3 12 2 12 C2.66 10.68 3.32 9.36 4 8 C3.34 7.67 2.68 7.34 2 7 C1.26924352 4.6859378 0.59861742 2.35171131 0 0 Z " fill="#D29D47" transform="translate(188,203)"/>
<path d="M0 0 C0.70703125 1.765625 0.70703125 1.765625 1 4 C-0.36328125 5.921875 -0.36328125 5.921875 -2.3125 7.75 C-3.26576172 8.67039063 -3.26576172 8.67039063 -4.23828125 9.609375 C-6 11 -6 11 -8 11 C-8.226875 11.598125 -8.45375 12.19625 -8.6875 12.8125 C-10.3611297 15.60188284 -12.08817726 16.6168842 -15 18 C-15.66 17.67 -16.32 17.34 -17 17 C-15.68 16.34 -14.36 15.68 -13 15 C-13 14.34 -13 13.68 -13 13 C-11.125 10.875 -11.125 10.875 -9 9 C-8.34 9 -7.68 9 -7 9 C-6.773125 8.443125 -6.54625 7.88625 -6.3125 7.3125 C-4.64103234 4.36753316 -2.44723648 2.31843456 0 0 Z " fill="#8F7242" transform="translate(55,217)"/>
<path d="M0 0 C0.33 0 0.66 0 1 0 C1.1875 2.8125 1.1875 2.8125 1 6 C-0.4375 7.5625 -0.4375 7.5625 -2 9 C-2.72197162 11.60611077 -2.72197162 11.60611077 -3 14 C-3.99 13.67 -4.98 13.34 -6 13 C-6.59732819 10.23735711 -7 7.83967231 -7 5 C-5.68 5 -4.36 5 -3 5 C-3 4.34 -3 3.68 -3 3 C-2.34 3 -1.68 3 -1 3 C-0.67 2.01 -0.34 1.02 0 0 Z " fill="#EFAD42" transform="translate(105,170)"/>
<path d="M0 0 C1.32 0.66 2.64 1.32 4 2 C3.67 3.98 3.34 5.96 3 8 C-0.13349732 9.04449911 -0.98968256 8.93423645 -4 8 C-4.33 6.68 -4.66 5.36 -5 4 C-3.35 2.68 -1.7 1.36 0 0 Z " fill="#F1AC43" transform="translate(175,197)"/>
<path d="M0 0 C2.35448165 2.55068845 2.98327924 3.71017358 3.1875 7.25 C3.125625 8.1575 3.06375 9.065 3 10 C2.01 9.67 1.02 9.34 0 9 C-0.66 9.66 -1.32 10.32 -2 11 C-4 8 -4 8 -3.625 5.3125 C-3.41875 4.549375 -3.2125 3.78625 -3 3 C-2.34 3 -1.68 3 -1 3 C-0.67 2.01 -0.34 1.02 0 0 Z " fill="#F0AC43" transform="translate(69,206)"/>
<path d="M0 0 C1.12894876 0.93274109 2.25300876 1.87140122 3.375 2.8125 C4.00148437 3.33457031 4.62796875 3.85664063 5.2734375 4.39453125 C7 6 7 6 9 9 C8.01 9 7.02 9 6 9 C5.34 8.34 4.68 7.68 4 7 C4 8.32 4 9.64 4 11 C-0.875 9.25 -0.875 9.25 -2 7 C-0.68 7 0.64 7 2 7 C1.34 4.69 0.68 2.38 0 0 Z " fill="#A88545" transform="translate(206,221)"/>
<path d="M0 0 C1.65 0.33 3.3 0.66 5 1 C5 1.66 5 2.32 5 3 C4.34 3 3.68 3 3 3 C3.33 3.66 3.66 4.32 4 5 C4.99 5 5.98 5 7 5 C6.67 6.98 6.34 8.96 6 11 C5.01 10.34 4.02 9.68 3 9 C3 8.34 3 7.68 3 7 C1.68 6.67 0.36 6.34 -1 6 C-0.67 4.02 -0.34 2.04 0 0 Z " fill="#EEAE4A" transform="translate(195,214)"/>
<path d="M0 0 C0.33 0.99 0.66 1.98 1 3 C-0.875 5.5625 -0.875 5.5625 -3 8 C-3.33 8.66 -3.66 9.32 -4 10 C-4.99 10 -5.98 10 -7 10 C-7 10.66 -7 11.32 -7 12 C-8.32 11.67 -9.64 11.34 -11 11 C-7.37 7.37 -3.74 3.74 0 0 Z " fill="#A78349" transform="translate(68,204)"/>
<path d="M0 0 C1.65 0 3.3 0 5 0 C5 0.99 5 1.98 5 3 C5.721875 3.061875 6.44375 3.12375 7.1875 3.1875 C10.87798635 4.2536405 12.49572729 6.14791164 15 9 C15.33 9.66 15.66 10.32 16 11 C12.61708124 9.3929127 9.47991249 7.49601962 6.3125 5.5 C5.33925781 4.8915625 4.36601562 4.283125 3.36328125 3.65625 C1 2 1 2 0 0 Z " fill="#BC9754" transform="translate(146,188)"/>
<path d="M0 0 C4.88049925 3.9419417 9.0580583 8.11950075 13 13 C10 13 10 13 7.7734375 11.171875 C6.98195312 10.37265625 6.19046875 9.5734375 5.375 8.75 C4.57835937 7.96109375 3.78171875 7.1721875 2.9609375 6.359375 C1.08356869 4.10054878 0.38070118 2.86182269 0 0 Z " fill="#9D7C4A" transform="translate(143,157)"/>
<path d="M0 0 C6.29 4.93 6.29 4.93 8 7 C8 7.99 8 8.98 8 10 C4.06326356 8.68775452 1.77280706 7.08089673 -1 4 C-0.34 4 0.32 4 1 4 C0.67 2.68 0.34 1.36 0 0 Z " fill="#81704B" transform="translate(217,232)"/>
<path d="M0 0 C0.66 0.33 1.32 0.66 2 1 C1.67 2.98 1.34 4.96 1 7 C-1.64 7.66 -4.28 8.32 -7 9 C-6.67 8.01 -6.34 7.02 -6 6 C-5.34 5.67 -4.68 5.34 -4 5 C-3.67 4.01 -3.34 3.02 -3 2 C-2.01 1.34 -1.02 0.68 0 0 Z " fill="#EFAF49" transform="translate(115,159)"/>
<path d="M0 0 C0.99 0 1.98 0 3 0 C3.625 2.3125 3.625 2.3125 4 5 C3.01 6.485 3.01 6.485 2 8 C0.68 8 -0.64 8 -2 8 C-1.47731534 5.23723823 -0.89130413 2.6739124 0 0 Z " fill="#F1AC41" transform="translate(88,186)"/>
<path d="M0 0 C2.64 0 5.28 0 8 0 C4.2064129 3.21880117 0.34170523 5.6163187 -4 8 C-4 7.01 -4 6.02 -4 5 C-3.01 5 -2.02 5 -1 5 C-0.67 3.35 -0.34 1.7 0 0 Z " fill="#CFA357" transform="translate(108,186)"/>
<path d="M0 0 C2 3 2 3 2 5 C-0.25 6.6875 -0.25 6.6875 -3 8 C-4.32 7.67 -5.64 7.34 -7 7 C-4.69 4.69 -2.38 2.38 0 0 Z " fill="#B8904B" transform="translate(97,175)"/>
<path d="M0 0 C0.99 0.66 1.98 1.32 3 2 C2.67 2.99 2.34 3.98 2 5 C0.25 5.5625 0.25 5.5625 -2 6 C-3.6744239 6.6469365 -5.34302621 7.30959426 -7 8 C-6.67 7.01 -6.34 6.02 -6 5 C-5.34 5 -4.68 5 -4 5 C-3.71125 4.360625 -3.4225 3.72125 -3.125 3.0625 C-2 1 -2 1 0 0 Z " fill="#836941" transform="translate(129,143)"/>
<path d="M0 0 C1.12894876 0.93274109 2.25300876 1.87140122 3.375 2.8125 C4.00148437 3.33457031 4.62796875 3.85664063 5.2734375 4.39453125 C7 6 7 6 9 9 C8.01 9.495 8.01 9.495 7 10 C7 9.34 7 8.68 7 8 C5.35 7.67 3.7 7.34 2 7 C1.34 4.69 0.68 2.38 0 0 Z " fill="#AB854A" transform="translate(188,203)"/>
<path d="M0 0 C0.66 0.33 1.32 0.66 2 1 C-0.05127045 4.9945793 -1.88912162 7.10267152 -6 9 C-6.66 8.67 -7.32 8.34 -8 8 C-6.68 7.34 -5.36 6.68 -4 6 C-4 5.34 -4 4.68 -4 4 C-2.70766393 2.62689293 -1.37562854 1.28965176 0 0 Z " fill="#82663B" transform="translate(46,226)"/>
<path d="M0 0 C2.0625 0.4375 2.0625 0.4375 4 1 C4.33 2.65 4.66 4.3 5 6 C3.35 5.67 1.7 5.34 0 5 C-0.5625 3.0625 -0.5625 3.0625 -1 1 C-0.67 0.67 -0.34 0.34 0 0 Z " fill="#EBAD44" transform="translate(203,222)"/>
<path d="M0 0 C0.33 1.32 0.66 2.64 1 4 C-1.31 5.65 -3.62 7.3 -6 9 C-6.66 8.67 -7.32 8.34 -8 8 C-5.36 5.36 -2.72 2.72 0 0 Z " fill="#A5834A" transform="translate(84,188)"/>
<path d="M0 0 C0 3.70411834 -0.75301769 5.078923 -3 8 C-6.1875 9.3125 -6.1875 9.3125 -9 10 C-8.06409496 8.8944811 -7.12620142 7.79064547 -6.1875 6.6875 C-5.66542969 6.07261719 -5.14335938 5.45773438 -4.60546875 4.82421875 C-3.12827531 3.14575321 -1.59960869 1.56117966 0 0 Z " fill="#A6854D" transform="translate(121,151)"/>
<path d="M0 0 C1.32 0.66 2.64 1.32 4 2 C-0.625 6 -0.625 6 -4 6 C-4 5.01 -4 4.02 -4 3 C-2.68 3 -1.36 3 0 3 C0 2.01 0 1.02 0 0 Z " fill="#D5A355" transform="translate(68,214)"/>
<path d="M0 0 C2.475 0.99 2.475 0.99 5 2 C3.71034824 3.37562854 2.37310707 4.70766393 1 6 C0.34 6 -0.32 6 -1 6 C-1.042721 4.33388095 -1.04063832 2.66617115 -1 1 C-0.67 0.67 -0.34 0.34 0 0 Z " fill="#DDA44F" transform="translate(87,200)"/>
<path d="M0 0 C1.32 0.99 2.64 1.98 4 3 C2.02 4.32 0.04 5.64 -2 7 C-2.66 6.34 -3.32 5.68 -4 5 C-2.68 3.35 -1.36 1.7 0 0 Z " fill="#877753" transform="translate(37,235)"/>
<path d="M0 0 C6.757 1.631 6.757 1.631 8.6875 4.5625 C9.120625 5.366875 9.55375 6.17125 10 7 C5.56541027 5.6062718 3.12621626 3.39417765 0 0 Z " fill="#9A7849" transform="translate(191,219)"/>
<path d="M0 0 C-1.6875 2.0625 -1.6875 2.0625 -4 4 C-6.75 3.75 -6.75 3.75 -9 3 C-5.92807025 0.26939578 -4.09590633 -0.34132553 0 0 Z " fill="#D2A55D" transform="translate(47,233)"/>
<path d="M0 0 C1.65 1.32 3.3 2.64 5 4 C4.67 4.99 4.34 5.98 4 7 C3.01 6.67 2.02 6.34 1 6 C0.67 4.02 0.34 2.04 0 0 Z " fill="#E3A749" transform="translate(209,227)"/>
<path d="M0 0 C0.33 0.66 0.66 1.32 1 2 C-0.4375 4.625 -0.4375 4.625 -2 7 C-3.32 6.67 -4.64 6.34 -6 6 C-4.02 4.02 -2.04 2.04 0 0 Z " fill="#A5804C" transform="translate(75,197)"/>
<path d="M0 0 C3.16115776 1.36983503 3.9927092 1.9890638 6 5 C5.01 5.495 5.01 5.495 4 6 C4 5.34 4 4.68 4 4 C3.01 4.33 2.02 4.66 1 5 C0.34 4.34 -0.32 3.68 -1 3 C-0.67 2.01 -0.34 1.02 0 0 Z " fill="#BB8E49" transform="translate(179,195)"/>
<path d="M0 0 C0.33 0.99 0.66 1.98 1 3 C-0.65 4.65 -2.3 6.3 -4 8 C-4.99 7.67 -5.98 7.34 -7 7 C-4.69 4.69 -2.38 2.38 0 0 Z " fill="#A2844D" transform="translate(111,161)"/>
</svg>
